<?xml version="1.0" encoding="UTF-8" standalone="no"?>
<!-- Created with Inkscape (http://www.inkscape.org/) -->

<svg
   width="400"
   height="100"
   viewBox="0 0 400 100"
   version="1.1"
   id="svg5"
   inkscape:version="1.1 (c68e22c387, 2021-05-23)"
   sodipodi:docname="logo-wide-white-source.svg"
   xmlns:inkscape="http://www.inkscape.org/namespaces/inkscape"
   xmlns:sodipodi="http://sodipodi.sourceforge.net/DTD/sodipodi-0.dtd"
   xmlns="http://www.w3.org/2000/svg"
   xmlns:svg="http://www.w3.org/2000/svg">
  <sodipodi:namedview
     id="namedview7"
     pagecolor="#ffffff"
     bordercolor="#666666"
     borderopacity="1.0"
     inkscape:pageshadow="2"
     inkscape:pageopacity="0.0"
     inkscape:pagecheckerboard="0"
     inkscape:document-units="mm"
     showgrid="false"
     units="px"
     viewbox-height="100"
     inkscape:zoom="2.8284271"
     inkscape:cx="180.66578"
     inkscape:cy="17.500893"
     inkscape:window-width="2560"
     inkscape:window-height="1376"
     inkscape:window-x="1920"
     inkscape:window-y="27"
     inkscape:window-maximized="1"
     inkscape:current-layer="text1841" />
  <defs
     id="defs2" />
  <g
     inkscape:label="Layer 1"
     inkscape:groupmode="layer"
     id="layer1">
    <g
       id="g5752"
       transform="matrix(1.1136455,0,0,1.1132338,-14.034277,2.6699105)">
      <path
         id="path846"
         style="fill:#1da1f2;fill-opacity:1;stroke:#003352;stroke-width:3;stroke-linecap:butt;stroke-linejoin:round;stroke-miterlimit:4;stroke-dasharray:none;stroke-opacity:1"
         d="M 47.251857,0 A 32.252568,31.875 0 0 0 15,31.875 32.252568,31.875 0 0 0 32.000001,59.905078 V 85 L 54.096682,62.923242 a 32.252568,31.875 0 0 0 25.169629,-27.72627 c 1.48886,-1.081464 2.949405,-2.151481 4.298145,-3.159277 C 92.296935,25.512675 100,12.557421 100,12.557422 c 0,0 -6.456754,6.588699 -21.860935,8.797168 -0.06849,0.0098 -0.131238,0.02313 -0.199218,0.0332 8.985198,-8.133583 18.099025,-20.79511618 18.099025,-20.79511618 0,0 -11.769255,6.35395028 -25.041799,9.71689418 A 32.252568,31.875 0 0 0 47.251857,0 Z" />
      <rect
         style="fill:#ffffff;fill-opacity:1;stroke:#003352;stroke-width:2;stroke-miterlimit:4;stroke-dasharray:none;stroke-opacity:1;paint-order:fill markers stroke"
         id="rect1413"
         width="6.8000002"
         height="21.25"
         x="47.300003"
         y="12.75"
         ry="3.3999999" />
      <rect
         style="fill:#ffffff;fill-opacity:1;stroke:#003352;stroke-width:2;stroke-miterlimit:4;stroke-dasharray:none;stroke-opacity:1;paint-order:fill markers stroke"
         id="rect1413-7"
         width="6.8000002"
         height="21.25"
         x="57.500004"
         y="12.75"
         ry="3.3999999" />
    </g>
    <g
       aria-label="TWEETCH"
       id="text1841"
       style="font-size:56.6924px;line-height:1.25;stroke-width:1.41731">
      <path
         d="m 117.52437,29.062734 h 31.52098 q 1.81415,0 2.66454,0.45354 0.85038,0.396846 1.13385,1.303925 0.28346,0.907078 0.28346,2.381081 0,1.474002 -0.28346,2.381081 -0.28347,0.850386 -0.96377,1.19054 -1.02047,0.510232 -2.89132,0.510232 H 138.1604 v 28.516278 q 0,1.303925 -0.11338,1.927541 -0.0567,0.623617 -0.51023,1.474003 -0.39685,0.793693 -1.474,1.133848 -1.07716,0.340154 -2.83462,0.340154 -1.75747,0 -2.83462,-0.340154 -1.02047,-0.340155 -1.47401,-1.133848 -0.39684,-0.850386 -0.51023,-1.474003 -0.0567,-0.680308 -0.0567,-1.984234 V 37.283133 h -10.88494 q -1.81416,0 -2.66455,-0.396847 -0.85038,-0.453539 -1.13384,-1.360618 -0.28347,-0.907078 -0.28347,-2.381081 0,-1.474002 0.28347,-2.324388 0.28346,-0.907079 0.96377,-1.247233 1.02046,-0.510232 2.89131,-0.510232 z"
         style="font-family:'Fredoka One';-inkscape-font-specification:'Fredoka One, Normal';fill:#ffffff;fill-opacity:1"
         id="path974" />
      <path
         d="m 205.96446,29.346196 q 3.79839,1.360618 3.79839,3.628314 0,0.737001 -0.68031,2.777928 L 198.1976,67.216721 q -0.11338,0.396847 -0.39685,0.963771 -0.28346,0.566924 -1.53069,1.530694 -1.19054,0.907079 -2.89131,0.907079 -1.64408,0 -2.89132,-0.907079 -1.19054,-0.96377 -1.58738,-1.870849 l -6.63301,-19.558878 q -6.29286,18.595107 -6.40625,18.935262 -0.11338,0.340154 -0.51023,0.963771 -0.39684,0.623616 -0.90708,1.133848 -1.30392,1.303925 -3.11808,1.303925 -1.81415,0 -3.00469,-0.850386 -1.13385,-0.850386 -1.5307,-1.700772 l -0.39685,-0.850386 -10.94163,-31.464283 q -0.62362,-1.87085 -0.62362,-2.777928 0,-2.267696 3.79839,-3.571621 1.64408,-0.566924 2.94801,-0.566924 1.36062,0 2.04093,0.907078 0.737,0.907079 1.30392,2.777928 l 6.23617,18.935262 6.17947,-18.6518 q 0.79369,-2.381081 2.89131,-3.288159 0.90708,-0.396847 2.32439,-0.396847 1.474,0 2.72123,0.963771 1.24724,0.907078 1.58739,1.814156 l 6.51963,19.672264 6.23616,-19.048647 q 0.45354,-1.303925 0.737,-1.927542 0.28346,-0.623616 1.02047,-1.19054 0.79369,-0.623617 1.92754,-0.623617 1.13385,0 2.66454,0.566924 z"
         style="font-family:'Fredoka One';-inkscape-font-specification:'Fredoka One, Normal';fill:#ffffff;fill-opacity:1"
         id="path976" />
      <path
         d="m 222.91541,60.640402 h 17.46126 q 1.30393,0 1.92754,0.113385 0.68031,0.05669 1.5307,0.510232 1.53069,0.793693 1.53069,4.422007 0,3.968468 -2.09762,4.648777 -0.96377,0.340154 -2.948,0.340154 h -22.45019 q -3.96847,0 -4.64878,-2.154311 -0.34015,-0.907078 -0.34015,-2.891312 V 34.108358 q 0,-2.891312 1.07715,-3.911776 1.07716,-1.077155 4.08185,-1.077155 h 22.33681 q 1.30393,0 1.92754,0.113384 0.68031,0.05669 1.5307,0.510232 1.53069,0.793694 1.53069,4.422007 0,3.968469 -2.09762,4.648777 -0.96377,0.340155 -2.948,0.340155 h -17.40457 v 5.725932 h 11.2251 q 1.30392,0 1.92754,0.113385 0.68031,0.05669 1.53069,0.510232 1.5307,0.793693 1.5307,4.422007 0,3.968468 -2.15431,4.648777 -0.96377,0.340155 -2.94801,0.340155 h -11.11171 z"
         style="font-family:'Fredoka One';-inkscape-font-specification:'Fredoka One, Normal';fill:#ffffff;fill-opacity:1"
         id="path978" />
      <path
         d="m 259.08508,60.640402 h 17.46126 q 1.30393,0 1.92754,0.113385 0.68031,0.05669 1.5307,0.510232 1.53069,0.793693 1.53069,4.422007 0,3.968468 -2.09762,4.648777 -0.96377,0.340154 -2.948,0.340154 h -22.45019 q -3.96847,0 -4.64878,-2.154311 -0.34015,-0.907078 -0.34015,-2.891312 V 34.108358 q 0,-2.891312 1.07715,-3.911776 1.07716,-1.077155 4.08185,-1.077155 h 22.33681 q 1.30393,0 1.92754,0.113384 0.68031,0.05669 1.5307,0.510232 1.53069,0.793694 1.53069,4.422007 0,3.968469 -2.09762,4.648777 -0.96377,0.340155 -2.948,0.340155 h -17.40457 v 5.725932 h 11.2251 q 1.30392,0 1.92754,0.113385 0.68031,0.05669 1.53069,0.510232 1.5307,0.793693 1.5307,4.422007 0,3.968468 -2.15431,4.648777 -0.96377,0.340155 -2.94801,0.340155 h -11.11171 z"
         style="font-family:'Fredoka One';-inkscape-font-specification:'Fredoka One, Normal';fill:#ffffff;fill-opacity:1"
         id="path980" />
      <path
         d="m 287.94142,29.062734 h 31.52098 q 1.81416,0 2.66454,0.45354 0.85039,0.396846 1.13385,1.303925 0.28346,0.907078 0.28346,2.381081 0,1.474002 -0.28346,2.381081 -0.28346,0.850386 -0.96377,1.19054 -1.02046,0.510232 -2.89131,0.510232 h -10.82825 v 28.516278 q 0,1.303925 -0.11339,1.927541 -0.0567,0.623617 -0.51023,1.474003 -0.39685,0.793693 -1.474,1.133848 -1.07716,0.340154 -2.83462,0.340154 -1.75747,0 -2.83462,-0.340154 -1.02046,-0.340155 -1.474,-1.133848 -0.39685,-0.850386 -0.51024,-1.474003 -0.0567,-0.680308 -0.0567,-1.984234 V 37.283133 h -10.88494 q -1.81416,0 -2.66454,-0.396847 -0.85039,-0.453539 -1.13385,-1.360618 -0.28346,-0.907078 -0.28346,-2.381081 0,-1.474002 0.28346,-2.324388 0.28346,-0.907079 0.96377,-1.247233 1.02046,-0.510232 2.89131,-0.510232 z"
         style="font-family:'Fredoka One';-inkscape-font-specification:'Fredoka One, Normal';fill:#ffffff;fill-opacity:1"
         id="path982" />
      <path
         d="m 349.22577,59.790016 1.02047,-0.737001 q 1.92754,-1.133848 2.72123,-1.133848 1.75747,0 3.79839,3.174774 1.24724,1.984234 1.24724,3.174775 0,1.19054 -0.7937,1.984234 -0.737,0.793694 -1.75746,1.41731 -1.02046,0.623616 -1.98424,1.19054 -0.90707,0.566924 -3.79839,1.474003 -2.89131,0.907078 -5.61254,0.907078 -2.66455,0 -5.44247,-0.680309 -2.72124,-0.737001 -5.66925,-2.38108 -2.89131,-1.700772 -5.2157,-4.081853 -2.32438,-2.437774 -3.85508,-6.179472 -1.474,-3.798391 -1.474,-8.220398 0,-4.422008 1.474,-7.993629 1.474,-3.628314 3.7417,-5.952702 2.32439,-2.381081 5.27239,-3.968468 5.55586,-3.06139 11.16841,-3.06139 2.66454,0 5.38577,0.850386 2.77793,0.793694 4.19524,1.64408 l 1.36062,0.793693 q 1.02046,0.623617 1.58739,1.020463 1.474,1.190541 1.474,2.721236 0,1.474002 -1.19054,3.118082 -2.21101,3.06139 -3.96847,3.06139 -1.02046,0 -2.89131,-1.247233 -2.38108,-1.927542 -6.34955,-1.927542 -3.68501,0 -7.25663,2.551158 -1.70077,1.247233 -2.83462,3.514929 -1.13385,2.267696 -1.13385,5.159009 0,2.83462 1.13385,5.102316 1.13385,2.267696 2.89131,3.571621 3.45824,2.494466 7.19994,2.494466 1.75746,0 3.28816,-0.453539 1.58739,-0.45354 2.26769,-0.907079 z"
         style="font-family:'Fredoka One';-inkscape-font-specification:'Fredoka One, Normal';fill:#ffffff;fill-opacity:1"
         id="path984" />
      <path
         d="m 387.43639,30.650122 q 0.45354,-0.850386 1.5307,-1.190541 1.07715,-0.340154 2.72123,-0.340154 1.64408,0 2.60785,0.283462 0.96377,0.283462 1.474,0.680309 0.51024,0.396846 0.7937,1.133848 0.28346,0.96377 0.28346,2.948004 v 31.464284 q 0,1.303925 -0.11338,1.984234 -0.0567,0.623616 -0.51024,1.474002 -0.79369,1.530695 -4.422,1.530695 -3.96847,0 -4.64878,-2.097619 -0.34015,-0.963771 -0.34015,-2.948005 V 54.064084 h -15.02349 v 11.56525 q 0,1.303925 -0.11339,1.984234 -0.0567,0.623616 -0.51023,1.474002 -0.79369,1.530695 -4.422,1.530695 -3.96847,0 -4.64878,-2.097619 -0.34016,-0.963771 -0.34016,-2.948005 V 34.108358 q 0,-1.303925 0.0567,-1.927542 0.11338,-0.680308 0.56692,-1.530694 0.79369,-1.530695 4.42201,-1.530695 3.96847,0 4.70547,2.097619 0.28346,0.96377 0.28346,2.948004 V 45.7303 h 15.02349 V 34.108358 q 0,-1.303925 0.0567,-1.927542 0.11338,-0.680308 0.56692,-1.530694 z"
         style="font-family:'Fredoka One';-inkscape-font-specification:'Fredoka One, Normal';fill:#ffffff;fill-opacity:1"
         id="path986" />
    </g>
  </g>
</svg>
