<?xml version="1.0" encoding="UTF-8"?>
<!-- Created with Inkscape (http://www.inkscape.org/) -->
<svg width="400" height="100" version="1.1" viewBox="0 0 400 100" xmlns="http://www.w3.org/2000/svg"><g><g transform="matrix(1.11 0 0 1.11 -14 2.67)" stroke="#003352"><path d="m47.3 0a32.3 31.9 0 0 0-32.3 31.9 32.3 31.9 0 0 0 17 28v25.1l22.1-22.1a32.3 31.9 0 0 0 25.2-27.7c1.49-1.08 2.95-2.15 4.3-3.16 8.73-6.53 16.4-19.5 16.4-19.5 0 0-6.46 6.59-21.9 8.8-0.0685 0.0098-0.131 0.0231-0.199 0.0332 8.99-8.13 18.1-20.8 18.1-20.8s-11.8 6.35-25 9.72a32.3 31.9 0 0 0-23.7-10.3z" fill="#1da1f2" stroke-linejoin="round" stroke-width="3"/><rect x="47.3" y="12.8" width="6.8" height="21.2" ry="3.4" fill="#fff" stroke-width="2" style="paint-order:fill markers stroke"/><rect x="57.5" y="12.8" width="6.8" height="21.2" ry="3.4" fill="#fff" stroke-width="2" style="paint-order:fill markers stroke"/></g><g fill="#003352" stroke-width="1.42" aria-label="TWEETCH"><path d="m118 29.1h31.5q1.81 0 2.66 0.454 0.85 0.397 1.13 1.3 0.283 0.907 0.283 2.38 0 1.47-0.283 2.38-0.283 0.85-0.964 1.19-1.02 0.51-2.89 0.51h-10.8v28.5q0 1.3-0.113 1.93-0.0567 0.624-0.51 1.47-0.397 0.794-1.47 1.13-1.08 0.34-2.83 0.34-1.76 0-2.83-0.34-1.02-0.34-1.47-1.13-0.397-0.85-0.51-1.47-0.0567-0.68-0.0567-1.98v-28.5h-10.9q-1.81 0-2.66-0.397-0.85-0.454-1.13-1.36-0.283-0.907-0.283-2.38 0-1.47 0.283-2.32 0.283-0.907 0.964-1.25 1.02-0.51 2.89-0.51z"/><path d="m206 29.3q3.8 1.36 3.8 3.63 0 0.737-0.68 2.78l-10.9 31.5q-0.113 0.397-0.397 0.964-0.283 0.567-1.53 1.53-1.19 0.907-2.89 0.907-1.64 0-2.89-0.907-1.19-0.964-1.59-1.87l-6.63-19.6q-6.29 18.6-6.41 18.9-0.113 0.34-0.51 0.964-0.397 0.624-0.907 1.13-1.3 1.3-3.12 1.3-1.81 0-3-0.85-1.13-0.85-1.53-1.7l-0.397-0.85-10.9-31.5q-0.624-1.87-0.624-2.78 0-2.27 3.8-3.57 1.64-0.567 2.95-0.567 1.36 0 2.04 0.907 0.737 0.907 1.3 2.78l6.24 18.9 6.18-18.7q0.794-2.38 2.89-3.29 0.907-0.397 2.32-0.397 1.47 0 2.72 0.964 1.25 0.907 1.59 1.81l6.52 19.7 6.24-19q0.454-1.3 0.737-1.93 0.283-0.624 1.02-1.19 0.794-0.624 1.93-0.624t2.66 0.567z"/><path d="m223 60.6h17.5q1.3 0 1.93 0.113 0.68 0.0567 1.53 0.51 1.53 0.794 1.53 4.42 0 3.97-2.1 4.65-0.964 0.34-2.95 0.34h-22.5q-3.97 0-4.65-2.15-0.34-0.907-0.34-2.89v-31.5q0-2.89 1.08-3.91 1.08-1.08 4.08-1.08h22.3q1.3 0 1.93 0.113 0.68 0.0567 1.53 0.51 1.53 0.794 1.53 4.42 0 3.97-2.1 4.65-0.964 0.34-2.95 0.34h-17.4v5.73h11.2q1.3 0 1.93 0.113 0.68 0.0567 1.53 0.51 1.53 0.794 1.53 4.42 0 3.97-2.15 4.65-0.964 0.34-2.95 0.34h-11.1z"/><path d="m259 60.6h17.5q1.3 0 1.93 0.113 0.68 0.0567 1.53 0.51 1.53 0.794 1.53 4.42 0 3.97-2.1 4.65-0.964 0.34-2.95 0.34h-22.5q-3.97 0-4.65-2.15-0.34-0.907-0.34-2.89v-31.5q0-2.89 1.08-3.91 1.08-1.08 4.08-1.08h22.3q1.3 0 1.93 0.113 0.68 0.0567 1.53 0.51 1.53 0.794 1.53 4.42 0 3.97-2.1 4.65-0.964 0.34-2.95 0.34h-17.4v5.73h11.2q1.3 0 1.93 0.113 0.68 0.0567 1.53 0.51 1.53 0.794 1.53 4.42 0 3.97-2.15 4.65-0.964 0.34-2.95 0.34h-11.1z"/><path d="m288 29.1h31.5q1.81 0 2.66 0.454 0.85 0.397 1.13 1.3 0.283 0.907 0.283 2.38 0 1.47-0.283 2.38-0.283 0.85-0.964 1.19-1.02 0.51-2.89 0.51h-10.8v28.5q0 1.3-0.113 1.93-0.0567 0.624-0.51 1.47-0.397 0.794-1.47 1.13-1.08 0.34-2.83 0.34-1.76 0-2.83-0.34-1.02-0.34-1.47-1.13-0.397-0.85-0.51-1.47-0.0567-0.68-0.0567-1.98v-28.5h-10.9q-1.81 0-2.66-0.397-0.85-0.454-1.13-1.36-0.283-0.907-0.283-2.38 0-1.47 0.283-2.32 0.283-0.907 0.964-1.25 1.02-0.51 2.89-0.51z"/><path d="m349 59.8 1.02-0.737q1.93-1.13 2.72-1.13 1.76 0 3.8 3.17 1.25 1.98 1.25 3.17 0 1.19-0.794 1.98-0.737 0.794-1.76 1.42t-1.98 1.19q-0.907 0.567-3.8 1.47-2.89 0.907-5.61 0.907-2.66 0-5.44-0.68-2.72-0.737-5.67-2.38-2.89-1.7-5.22-4.08-2.32-2.44-3.86-6.18-1.47-3.8-1.47-8.22 0-4.42 1.47-7.99 1.47-3.63 3.74-5.95 2.32-2.38 5.27-3.97 5.56-3.06 11.2-3.06 2.66 0 5.39 0.85 2.78 0.794 4.2 1.64l1.36 0.794q1.02 0.624 1.59 1.02 1.47 1.19 1.47 2.72 0 1.47-1.19 3.12-2.21 3.06-3.97 3.06-1.02 0-2.89-1.25-2.38-1.93-6.35-1.93-3.69 0-7.26 2.55-1.7 1.25-2.83 3.51t-1.13 5.16q0 2.83 1.13 5.1t2.89 3.57q3.46 2.49 7.2 2.49 1.76 0 3.29-0.454 1.59-0.454 2.27-0.907z"/><path d="m387 30.7q0.454-0.85 1.53-1.19 1.08-0.34 2.72-0.34t2.61 0.283 1.47 0.68q0.51 0.397 0.794 1.13 0.283 0.964 0.283 2.95v31.5q0 1.3-0.113 1.98-0.0567 0.624-0.51 1.47-0.794 1.53-4.42 1.53-3.97 0-4.65-2.1-0.34-0.964-0.34-2.95v-11.5h-15v11.6q0 1.3-0.113 1.98-0.0567 0.624-0.51 1.47-0.794 1.53-4.42 1.53-3.97 0-4.65-2.1-0.34-0.964-0.34-2.95v-31.5q0-1.3 0.0567-1.93 0.113-0.68 0.567-1.53 0.794-1.53 4.42-1.53 3.97 0 4.71 2.1 0.283 0.964 0.283 2.95v11.6h15v-11.6q0-1.3 0.0567-1.93 0.113-0.68 0.567-1.53z"/></g></g></svg>
